<svg version="1.1" viewBox="0.0 0.0 1280.0 960.0" fill="none" stroke="none" stroke-linecap="square" stroke-miterlimit="10" xmlns:xlink="http://www.w3.org/1999/xlink" xmlns="http://www.w3.org/2000/svg"><clipPath id="p.0"><path d="m0 0l1280.0 0l0 960.0l-1280.0 0l0 -960.0z" clip-rule="nonzero"/></clipPath><g clip-path="url(#p.0)"><path fill="#000000" fill-opacity="0.0" d="m0 0l1280.0 0l0 960.0l-1280.0 0z" fill-rule="evenodd"/><path fill="#000000" fill-opacity="0.0" d="m341.90027 220.92996l656.7874 0l0 633.51184l-656.7874 0z" fill-rule="evenodd"/><path stroke="#000000" stroke-width="24.0" stroke-linejoin="round" stroke-linecap="butt" stroke-dasharray="96.0,72.0" d="m341.90027 220.92996l656.7874 0l0 633.51184l-656.7874 0z" fill-rule="evenodd"/><path fill="#000000" fill-opacity="0.0" d="m525.9191 151.97018l459.0551 0" fill-rule="evenodd"/><path stroke="#000000" stroke-width="12.0" stroke-linejoin="round" stroke-linecap="butt" d="m525.9192 151.97018l387.05505 0" fill-rule="evenodd"/><path fill="#000000" stroke="#000000" stroke-width="12.0" stroke-linecap="butt" d="m912.97424 171.79097l54.457153 -19.820786l-54.457153 -19.820786z" fill-rule="evenodd"/><path fill="#000000" fill-opacity="0.0" d="m268.07663 416.2787l0 438.2362" fill-rule="evenodd"/><path stroke="#000000" stroke-width="12.0" stroke-linejoin="round" stroke-linecap="butt" d="m268.0766 416.27866l0 366.2363" fill-rule="evenodd"/><path fill="#000000" stroke="#000000" stroke-width="12.0" stroke-linecap="butt" d="m248.25581 782.51495l19.820786 54.457153l19.8208 -54.457153z" fill-rule="evenodd"/><path fill="#000000" fill-opacity="0.0" d="m341.89996 53.401573l159.87402 0l0 180.97638l-159.87402 0z" fill-rule="evenodd"/><path fill="#000000" d="m400.5962 191.07346q-4.28125 0 -7.71875 -2.703125q-3.4375 -2.71875 -3.4375 -8.453125l0.140625 -1.609375q1.46875 -13.8125 3.546875 -28.71875q2.078125 -14.921875 2.765625 -18.609375l-6.28125 1.765625l-1.96875 0.328125q-4.171875 0 -6.328125 -2.921875q-2.140625 -2.9375076 -2.140625 -6.5156326l0.140625 -1.34375q0.359375 -3.375 2.171875 -5.546875q1.828125 -2.1875 6.03125 -3.96875q4.203125 -1.78125 12.03125 -3.6875l5.640625 -1.359375q3.390625 -0.71875 5.6875 -0.71875q5.03125 0 7.75 2.828125q2.734375 2.828125 2.734375 7.53125q0 1.890625 -0.453125 4.03125q-2.109375 10.296883 -8.09375 58.984383q-1.375 10.6875 -12.21875 10.6875zm50.13141 0q-4.28125 0 -7.71875 -2.703125q-3.4375 -2.71875 -3.4375 -8.453125l0.140625 -1.609375q1.46875 -13.8125 3.546875 -28.71875q2.078125 -14.921875 2.765625 -18.609375l-6.28125 1.765625l-1.96875 0.328125q-4.171875 0 -6.328125 -2.921875q-2.140625 -2.9375076 -2.140625 -6.5156326l0.140625 -1.34375q0.359375 -3.375 2.171875 -5.546875q1.828125 -2.1875 6.03125 -3.96875q4.203125 -1.78125 12.03125 -3.6875l5.640625 -1.359375q3.390625 -0.71875 5.6875 -0.71875q5.03125 0 7.75 2.828125q2.734375 2.828125 2.734375 7.53125q0 1.890625 -0.453125 4.03125q-2.109375 10.296883 -8.09375 58.984383q-1.375 10.6875 -12.21875 10.6875z" fill-rule="nonzero"/><path fill="#000000" fill-opacity="0.0" d="m195.63518 234.37796l144.88188 0l0 180.97638l-144.88188 0z" fill-rule="evenodd"/><path fill="#000000" d="m246.83533 372.04984q-4.28125 0 -7.71875 -2.703125q-3.4375 -2.71875 -3.4375 -8.453125l0.140625 -1.609375q1.46875 -13.8125 3.546875 -28.71875q2.078125 -14.921875 2.765625 -18.609375l-6.28125 1.765625l-1.96875 0.328125q-4.171875 0 -6.328125 -2.921875q-2.140625 -2.9375 -2.140625 -6.515625l0.140625 -1.34375q0.359375 -3.375 2.171875 -5.546875q1.828125 -2.1875 6.03125 -3.96875q4.203125 -1.78125 12.03125 -3.6875l5.640625 -1.359375q3.390625 -0.71875 5.6875 -0.71875q5.03125 0 7.75 2.828125q2.734375 2.828125 2.734375 7.53125q0 1.890625 -0.453125 4.03125q-2.109375 10.296875 -8.09375 58.984375q-1.375 10.6875 -12.21875 10.6875zm50.13141 0q-4.28125 0 -7.71875 -2.703125q-3.4375 -2.71875 -3.4375 -8.453125l0.140625 -1.609375q1.46875 -13.8125 3.546875 -28.71875q2.078125 -14.921875 2.765625 -18.609375l-6.28125 1.765625l-1.96875 0.328125q-4.171875 0 -6.328125 -2.921875q-2.140625 -2.9375 -2.140625 -6.515625l0.140625 -1.34375q0.359375 -3.375 2.171875 -5.546875q1.828125 -2.1875 6.03125 -3.96875q4.203125 -1.78125 12.03125 -3.6875l5.640625 -1.359375q3.390625 -0.71875 5.6875 -0.71875q5.03125 0 7.75 2.828125q2.734375 2.828125 2.734375 7.53125q0 1.890625 -0.453125 4.03125q-2.109375 10.296875 -8.09375 58.984375q-1.375 10.6875 -12.21875 10.6875z" fill-rule="nonzero"/></g></svg>