<svg version="1.1" viewBox="0.0 0.0 1280.0 960.0" fill="none" stroke="none" stroke-linecap="square" stroke-miterlimit="10" xmlns:xlink="http://www.w3.org/1999/xlink" xmlns="http://www.w3.org/2000/svg"><clipPath id="p.0"><path d="m0 0l1280.0 0l0 960.0l-1280.0 0l0 -960.0z" clip-rule="nonzero"/></clipPath><g clip-path="url(#p.0)"><path fill="#000000" fill-opacity="0.0" d="m0 0l1280.0 0l0 960.0l-1280.0 0z" fill-rule="evenodd"/><path fill="#000000" fill-opacity="0.0" d="m341.90027 220.92996l656.7874 0l0 633.51184l-656.7874 0z" fill-rule="evenodd"/><path stroke="#000000" stroke-width="24.0" stroke-linejoin="round" stroke-linecap="butt" stroke-dasharray="96.0,72.0" d="m341.90027 220.92996l656.7874 0l0 633.51184l-656.7874 0z" fill-rule="evenodd"/><path fill="#000000" fill-opacity="0.0" d="m525.9191 151.97018l459.0551 0" fill-rule="evenodd"/><path stroke="#000000" stroke-width="12.0" stroke-linejoin="round" stroke-linecap="butt" d="m525.9192 151.97018l387.05505 0" fill-rule="evenodd"/><path fill="#000000" stroke="#000000" stroke-width="12.0" stroke-linecap="butt" d="m912.97424 171.79097l54.457153 -19.820786l-54.457153 -19.820786z" fill-rule="evenodd"/><path fill="#000000" fill-opacity="0.0" d="m268.07663 416.2787l0 438.2362" fill-rule="evenodd"/><path stroke="#000000" stroke-width="12.0" stroke-linejoin="round" stroke-linecap="butt" d="m268.0766 416.27866l0 366.2363" fill-rule="evenodd"/><path fill="#000000" stroke="#000000" stroke-width="12.0" stroke-linecap="butt" d="m248.25581 782.51495l19.820786 54.457153l19.8208 -54.457153z" fill-rule="evenodd"/><path fill="#000000" fill-opacity="0.0" d="m341.89996 53.401573l159.87402 0l0 180.97638l-159.87402 0z" fill-rule="evenodd"/><path fill="#000000" d="m390.99658 191.07346q-4.28125 0 -7.71875 -2.703125q-3.4375 -2.71875 -3.4375 -8.453125l0.140625 -1.609375q1.46875 -13.8125 3.546875 -28.71875q2.078125 -14.921875 2.765625 -18.609375l-6.28125 1.765625l-1.96875 0.328125q-4.171875 0 -6.328125 -2.921875q-2.140625 -2.9375076 -2.140625 -6.5156326l0.140625 -1.34375q0.359375 -3.375 2.171875 -5.546875q1.828125 -2.1875 6.03125 -3.96875q4.203125 -1.78125 12.03125 -3.6875l5.640625 -1.359375q3.390625 -0.71875 5.6875 -0.71875q5.03125 0 7.75 2.828125q2.734375 2.828125 2.734375 7.53125q0 1.890625 -0.453125 4.03125q-2.109375 10.296883 -8.09375 58.984383q-1.375 10.6875 -12.21875 10.6875zm78.36578 -42.171875q1.0780945 -0.9375 6.4062195 4.46875q5.328125 5.390625 5.328125 13.59375q0 7.84375 -4.71875 13.3125q-4.703125 5.453125 -12.2812195 8.125q-7.5625 2.671875 -16.296875 2.671875q-15.40625 0 -23.625 -5.734375q-8.203125 -5.734375 -8.203125 -14.765625q0 -5.4375 2.875 -8.765625q2.890625 -3.34375 7.75 -3.34375q4.234375 0 6.421875 2.203125q2.1875 2.203125 3.453125 6.640625q0.671875 2.578125 2.796875 3.9375q2.140625 1.359375 7.46875 1.359375q5.109375 0 7.90625 -1.609375q2.796875 -1.625 2.796875 -4.5625q0 -3.109375 -2.640625 -4.71875q-2.625 -1.609375 -9.515625 -1.84375q-4.09375 -0.203125 -6.171875 -2.875q-2.078125 -2.671875 -2.078125 -6.15625q0 -4.1875 1.75 -6.359375q1.765625 -2.171875 5.609375 -2.890625q8.0 -1.21875 11.1875 -4.296875q3.1875 -3.09375 3.1875 -7.25q0 -4.5781326 -7.359375 -4.5781326q-9.0 0 -10.515625 6.7031326q-1.171875 4.484375 -3.6875 6.625q-2.515625 2.140625 -6.734375 2.140625q-4.8125 0 -7.53125 -2.890625q-2.703125 -2.90625 -2.703125 -7.46875q0 -6.2812576 4.234375 -11.734383q4.25 -5.46875 11.703125 -8.640625q7.46875 -3.1875 17.234375 -3.1875q13.6875 0 21.421844 5.609375q7.734375 5.609375 7.734375 16.750008q0 7.453125 -5.453125 13.640625q-5.4375 6.1875 -7.7499695 5.890625z" fill-rule="nonzero"/><path fill="#000000" fill-opacity="0.0" d="m195.63518 234.37796l144.88188 0l0 180.97638l-144.88188 0z" fill-rule="evenodd"/><path fill="#000000" d="m237.2357 372.04984q-4.28125 0 -7.71875 -2.703125q-3.4375 -2.71875 -3.4375 -8.453125l0.140625 -1.609375q1.46875 -13.8125 3.546875 -28.71875q2.078125 -14.921875 2.765625 -18.609375l-6.28125 1.765625l-1.96875 0.328125q-4.171875 0 -6.328125 -2.921875q-2.140625 -2.9375 -2.140625 -6.515625l0.140625 -1.34375q0.359375 -3.375 2.171875 -5.546875q1.828125 -2.1875 6.03125 -3.96875q4.203125 -1.78125 12.03125 -3.6875l5.640625 -1.359375q3.390625 -0.71875 5.6875 -0.71875q5.03125 0 7.75 2.828125q2.7343903 2.828125 2.7343903 7.53125q0 1.890625 -0.453125 4.03125q-2.1093903 10.296875 -8.093765 58.984375q-1.375 10.6875 -12.21875 10.6875zm78.3658 -42.171875q1.078125 -0.9375 6.40625 4.46875q5.328125 5.390625 5.328125 13.59375q0 7.84375 -4.71875 13.3125q-4.703125 5.453125 -12.28125 8.125q-7.5625 2.671875 -16.296875 2.671875q-15.40625 0 -23.625 -5.734375q-8.203125 -5.734375 -8.203125 -14.765625q0 -5.4375 2.875 -8.765625q2.890625 -3.34375 7.75 -3.34375q4.234375 0 6.421875 2.203125q2.1875 2.203125 3.453125 6.640625q0.671875 2.578125 2.796875 3.9375q2.140625 1.359375 7.46875 1.359375q5.109375 0 7.90625 -1.609375q2.796875 -1.625 2.796875 -4.5625q0 -3.109375 -2.640625 -4.71875q-2.625 -1.609375 -9.515625 -1.84375q-4.09375 -0.203125 -6.171875 -2.875q-2.078125 -2.671875 -2.078125 -6.15625q0 -4.1875 1.75 -6.359375q1.765625 -2.171875 5.609375 -2.890625q8.0 -1.21875 11.1875 -4.296875q3.1875 -3.09375 3.1875 -7.25q0 -4.578125 -7.359375 -4.578125q-9.0 0 -10.515625 6.703125q-1.171875 4.484375 -3.6875 6.625q-2.515625 2.140625 -6.734375 2.140625q-4.8125 0 -7.53125 -2.890625q-2.703125 -2.90625 -2.703125 -7.46875q0 -6.28125 4.234375 -11.734375q4.25 -5.46875 11.703125 -8.640625q7.46875 -3.1875 17.234375 -3.1875q13.6875 0 21.421875 5.609375q7.734375 5.609375 7.734375 16.75q0 7.453125 -5.453125 13.640625q-5.4375 6.1875 -7.75 5.890625z" fill-rule="nonzero"/></g></svg>