<svg version="1.1" viewBox="0.0 0.0 1280.0 960.0" fill="none" stroke="none" stroke-linecap="square" stroke-miterlimit="10" xmlns:xlink="http://www.w3.org/1999/xlink" xmlns="http://www.w3.org/2000/svg"><clipPath id="p.0"><path d="m0 0l1280.0 0l0 960.0l-1280.0 0l0 -960.0z" clip-rule="nonzero"/></clipPath><g clip-path="url(#p.0)"><path fill="#000000" fill-opacity="0.0" d="m0 0l1280.0 0l0 960.0l-1280.0 0z" fill-rule="evenodd"/><path fill="#000000" fill-opacity="0.0" d="m341.90027 220.92996l656.7874 0l0 633.51184l-656.7874 0z" fill-rule="evenodd"/><path stroke="#000000" stroke-width="24.0" stroke-linejoin="round" stroke-linecap="butt" stroke-dasharray="96.0,72.0" d="m341.90027 220.92996l656.7874 0l0 633.51184l-656.7874 0z" fill-rule="evenodd"/><path fill="#000000" fill-opacity="0.0" d="m525.9191 151.97018l459.0551 0" fill-rule="evenodd"/><path stroke="#000000" stroke-width="12.0" stroke-linejoin="round" stroke-linecap="butt" d="m525.9192 151.97018l387.05505 0" fill-rule="evenodd"/><path fill="#000000" stroke="#000000" stroke-width="12.0" stroke-linecap="butt" d="m912.97424 171.79097l54.457153 -19.820786l-54.457153 -19.820786z" fill-rule="evenodd"/><path fill="#000000" fill-opacity="0.0" d="m268.07663 416.2787l0 438.2362" fill-rule="evenodd"/><path stroke="#000000" stroke-width="12.0" stroke-linejoin="round" stroke-linecap="butt" d="m268.0766 416.27866l0 366.2363" fill-rule="evenodd"/><path fill="#000000" stroke="#000000" stroke-width="12.0" stroke-linecap="butt" d="m248.25581 782.51495l19.820786 54.457153l19.8208 -54.457153z" fill-rule="evenodd"/><path fill="#000000" fill-opacity="0.0" d="m341.89996 53.401573l159.87402 0l0 180.97638l-159.87402 0z" fill-rule="evenodd"/><path fill="#000000" d="m387.19672 191.07346q-4.28125 0 -7.71875 -2.703125q-3.4375 -2.71875 -3.4375 -8.453125l0.140625 -1.609375q1.46875 -13.8125 3.546875 -28.71875q2.078125 -14.921875 2.765625 -18.609375l-6.28125 1.765625l-1.96875 0.328125q-4.171875 0 -6.328125 -2.921875q-2.140625 -2.9375076 -2.140625 -6.5156326l0.140625 -1.34375q0.359375 -3.375 2.171875 -5.546875q1.828125 -2.1875 6.03125 -3.96875q4.203125 -1.78125 12.03125 -3.6875l5.640625 -1.359375q3.390625 -0.71875 5.6875 -0.71875q5.03125 0 7.75 2.828125q2.734375 2.828125 2.734375 7.53125q0 1.890625 -0.453125 4.03125q-2.109375 10.296883 -8.09375 58.984383q-1.375 10.6875 -12.21875 10.6875zm90.53766 -36.203125q9.828125 0 9.828125 8.765625q0 6.234375 -3.609375 8.765625q-3.609375 2.53125 -10.21875 2.53125l-0.234375 0l-0.328125 4.484375q-0.484375 7.203125 -3.46875 10.09375q-2.984375 2.890625 -9.03125 2.890625q-9.84375 0 -9.84375 -11.4375q0 -1.703125 0.171875 -2.640625l0.34375 -3.390625q-16.296875 0 -26.296875 -0.125q-4.1875 0 -7.203125 -3.546875q-3.0 -3.546875 -3.0 -8.828125q0 -2.96875 1.0625 -6.21875q5.953125 -17.28125 17.796875 -39.218758q2.828125 -5.21875 6.046875 -7.59375q3.21875 -2.390625 9.578125 -2.390625q3.96875 0 6.359375 2.078125q2.40625 2.078125 2.40625 5.484375q0 3.015625 -1.6875 5.890625q-12.9375 23.640633 -16.84375 34.406258l14.140625 0q1.3125 -10.140625 4.140625 -21.5q1.28125 -4.953125 4.375 -7.7812576q3.109375 -2.84375 8.453125 -2.84375q9.5625 0 9.5625 8.625008q0 2.125 -0.34375 3.34375q-2.375 11.15625 -3.734375 20.15625l1.578125 0z" fill-rule="nonzero"/><path fill="#000000" fill-opacity="0.0" d="m188.13911 234.37796l159.87401 0l0 180.97638l-159.87401 0z" fill-rule="evenodd"/><path fill="#000000" d="m233.43585 372.04984q-4.28125 0 -7.71875 -2.703125q-3.4375 -2.71875 -3.4375 -8.453125l0.140625 -1.609375q1.46875 -13.8125 3.546875 -28.71875q2.078125 -14.921875 2.765625 -18.609375l-6.28125 1.765625l-1.96875 0.328125q-4.171875 0 -6.328125 -2.921875q-2.140625 -2.9375 -2.140625 -6.515625l0.140625 -1.34375q0.359375 -3.375 2.171875 -5.546875q1.828125 -2.1875 6.03125 -3.96875q4.203125 -1.78125 12.03125 -3.6875l5.640625 -1.359375q3.390625 -0.71875 5.6875 -0.71875q5.03125 0 7.75 2.828125q2.734375 2.828125 2.734375 7.53125q0 1.890625 -0.453125 4.03125q-2.109375 10.296875 -8.09375 58.984375q-1.375 10.6875 -12.21875 10.6875zm90.53766 -36.203125q9.828125 0 9.828125 8.765625q0 6.234375 -3.609375 8.765625q-3.609375 2.53125 -10.21875 2.53125l-0.234375 0l-0.328125 4.484375q-0.484375 7.203125 -3.46875 10.09375q-2.984375 2.890625 -9.03125 2.890625q-9.84375 0 -9.84375 -11.4375q0 -1.703125 0.171875 -2.640625l0.34375 -3.390625q-16.296875 0 -26.296875 -0.125q-4.1875 0 -7.203125 -3.546875q-3.0 -3.546875 -3.0 -8.828125q0 -2.96875 1.0625 -6.21875q5.953125 -17.28125 17.796875 -39.21875q2.828125 -5.21875 6.046875 -7.59375q3.21875 -2.390625 9.578125 -2.390625q3.96875 0 6.359375 2.078125q2.40625 2.078125 2.40625 5.484375q0 3.015625 -1.6875 5.890625q-12.9375 23.640625 -16.84375 34.40625l14.140625 0q1.3125 -10.140625 4.140625 -21.5q1.28125 -4.953125 4.375 -7.78125q3.109375 -2.84375 8.453125 -2.84375q9.5625 0 9.5625 8.625q0 2.125 -0.34375 3.34375q-2.375 11.15625 -3.734375 20.15625l1.578125 0z" fill-rule="nonzero"/></g></svg>