<svg version="1.1" viewBox="0.0 0.0 1280.0 960.0" fill="none" stroke="none" stroke-linecap="square" stroke-miterlimit="10" xmlns:xlink="http://www.w3.org/1999/xlink" xmlns="http://www.w3.org/2000/svg"><clipPath id="p.0"><path d="m0 0l1280.0 0l0 960.0l-1280.0 0l0 -960.0z" clip-rule="nonzero"/></clipPath><g clip-path="url(#p.0)"><path fill="#000000" fill-opacity="0.0" d="m0 0l1280.0 0l0 960.0l-1280.0 0z" fill-rule="evenodd"/><path fill="#000000" fill-opacity="0.0" d="m341.90027 220.92996l656.7874 0l0 633.51184l-656.7874 0z" fill-rule="evenodd"/><path stroke="#000000" stroke-width="24.0" stroke-linejoin="round" stroke-linecap="butt" stroke-dasharray="96.0,72.0" d="m341.90027 220.92996l656.7874 0l0 633.51184l-656.7874 0z" fill-rule="evenodd"/><path fill="#000000" fill-opacity="0.0" d="m525.9191 151.97018l459.0551 0" fill-rule="evenodd"/><path stroke="#000000" stroke-width="12.0" stroke-linejoin="round" stroke-linecap="butt" d="m525.9192 151.97018l387.05505 0" fill-rule="evenodd"/><path fill="#000000" stroke="#000000" stroke-width="12.0" stroke-linecap="butt" d="m912.97424 171.79097l54.457153 -19.820786l-54.457153 -19.820786z" fill-rule="evenodd"/><path fill="#000000" fill-opacity="0.0" d="m268.07663 416.2787l0 438.2362" fill-rule="evenodd"/><path stroke="#000000" stroke-width="12.0" stroke-linejoin="round" stroke-linecap="butt" d="m268.0766 416.27866l0 366.2363" fill-rule="evenodd"/><path fill="#000000" stroke="#000000" stroke-width="12.0" stroke-linecap="butt" d="m248.25581 782.51495l19.820786 54.457153l19.8208 -54.457153z" fill-rule="evenodd"/><path fill="#000000" fill-opacity="0.0" d="m380.04544 53.400272l121.73227 0l0 180.97638l-121.73227 0z" fill-rule="evenodd"/><path fill="#000000" d="m447.00458 126.80652q-3.765625 0 -3.6875 -0.265625q-0.953125 4.171875 -2.390625 11.03125q14.734375 0.8125 24.59375 7.578125q9.859375 6.765625 9.859375 18.75q0 7.75 -3.96875 13.953125q-3.96875 6.203125 -11.40625 9.71875q-7.4375 3.5 -17.265625 3.5q-13.203125 0 -21.71875 -5.421875q-8.5 -5.4375 -8.5 -15.078125q0 -5.40625 2.796875 -8.75q2.796875 -3.359375 7.828125 -3.359375q4.0625 0 6.3125 2.1875q2.265625 2.1875 3.546875 6.640625q1.703125 6.109375 11.078125 6.109375q3.828125 0 6.1875 -2.21875q2.375 -2.21875 2.375 -5.40625q0 -9.0625 -22.25 -9.78125q-6.140625 -0.140625 -9.421875 -2.390625q-3.265625 -2.25 -3.265625 -7.03125q0 -1.9375 0.484375 -3.953125l1.453125 -6.375q0.796875 -3.875 5.09375 -11.0625l0 2.546875q-3.609375 0 -6.125 -1.96875q-2.5 -1.984375 -2.5 -5.59375q0 -8.5625 8.328125 -11.171875q6.40625 -1.984375 22.4375 -1.984375q11.296875 0 16.515625 0.34375q5.234375 0.328125 8.265625 1.0625q3.46875 0.875 5.1875 2.703125q1.734375 1.828125 1.734375 5.1875q0 5.625 -2.59375 8.390625q-2.578125 2.765625 -8.046875 2.765625q-2.1875 0 -8.375 -0.265625q-11.140625 -0.390625 -12.5625 -0.390625z" fill-rule="nonzero"/><path fill="#000000" fill-opacity="0.0" d="m207.20998 235.21606l121.732285 0l0 180.97638l-121.732285 0z" fill-rule="evenodd"/><path fill="#000000" d="m274.1691 308.6223q-3.765625 0 -3.6875 -0.265625q-0.953125 4.171875 -2.390625 11.03125q14.734375 0.8125 24.59375 7.578125q9.859375 6.765625 9.859375 18.75q0 7.75 -3.96875 13.953125q-3.96875 6.203125 -11.40625 9.71875q-7.4375 3.5 -17.265625 3.5q-13.203125 0 -21.718735 -5.421875q-8.5 -5.4375 -8.5 -15.078125q0 -5.40625 2.796875 -8.75q2.796875 -3.359375 7.828125 -3.359375q4.0625 0 6.3124847 2.1875q2.265625 2.1875 3.546875 6.640625q1.703125 6.109375 11.078125 6.109375q3.828125 0 6.1875 -2.21875q2.375 -2.21875 2.375 -5.40625q0 -9.0625 -22.25 -9.78125q-6.1406097 -0.140625 -9.42186 -2.390625q-3.265625 -2.25 -3.265625 -7.03125q0 -1.9375 0.484375 -3.953125l1.453125 -6.375q0.796875 -3.875 5.09375 -11.0625l0 2.546875q-3.609375 0 -6.125 -1.96875q-2.5 -1.984375 -2.5 -5.59375q0 -8.5625 8.328125 -11.171875q6.4062347 -1.984375 22.437485 -1.984375q11.296875 0 16.515625 0.34375q5.234375 0.328125 8.265625 1.0625q3.46875 0.875 5.1875 2.703125q1.734375 1.828125 1.734375 5.1875q0 5.625 -2.59375 8.390625q-2.578125 2.765625 -8.046875 2.765625q-2.1875 0 -8.375 -0.265625q-11.140625 -0.390625 -12.5625 -0.390625z" fill-rule="nonzero"/></g></svg>