<svg version="1.1" viewBox="0.0 0.0 1280.0 960.0" fill="none" stroke="none" stroke-linecap="square" stroke-miterlimit="10" xmlns:xlink="http://www.w3.org/1999/xlink" xmlns="http://www.w3.org/2000/svg"><clipPath id="p.0"><path d="m0 0l1280.0 0l0 960.0l-1280.0 0l0 -960.0z" clip-rule="nonzero"/></clipPath><g clip-path="url(#p.0)"><path fill="#000000" fill-opacity="0.0" d="m0 0l1280.0 0l0 960.0l-1280.0 0z" fill-rule="evenodd"/><path fill="#000000" fill-opacity="0.0" d="m341.90027 220.92996l656.7874 0l0 633.51184l-656.7874 0z" fill-rule="evenodd"/><path stroke="#000000" stroke-width="24.0" stroke-linejoin="round" stroke-linecap="butt" stroke-dasharray="96.0,72.0" d="m341.90027 220.92996l656.7874 0l0 633.51184l-656.7874 0z" fill-rule="evenodd"/><path fill="#000000" fill-opacity="0.0" d="m525.9191 151.97018l459.0551 0" fill-rule="evenodd"/><path stroke="#000000" stroke-width="12.0" stroke-linejoin="round" stroke-linecap="butt" d="m525.9192 151.97018l387.05505 0" fill-rule="evenodd"/><path fill="#000000" stroke="#000000" stroke-width="12.0" stroke-linecap="butt" d="m912.97424 171.79097l54.457153 -19.820786l-54.457153 -19.820786z" fill-rule="evenodd"/><path fill="#000000" fill-opacity="0.0" d="m268.07663 416.2787l0 438.2362" fill-rule="evenodd"/><path stroke="#000000" stroke-width="12.0" stroke-linejoin="round" stroke-linecap="butt" d="m268.0766 416.27866l0 366.2363" fill-rule="evenodd"/><path fill="#000000" stroke="#000000" stroke-width="12.0" stroke-linecap="butt" d="m248.25581 782.51495l19.820786 54.457153l19.8208 -54.457153z" fill-rule="evenodd"/><path fill="#000000" fill-opacity="0.0" d="m380.04544 53.400272l121.73227 0l0 180.97638l-121.73227 0z" fill-rule="evenodd"/><path fill="#000000" d="m450.2838 125.72839q-6.40625 0 -10.609375 5.234375q-4.1875 5.234375 -5.859375 11.03125q-0.359375 -1.234375 4.59375 -3.109375q4.96875 -1.875 10.796875 -1.875q7.359375 0 13.265625 3.140625q5.921875 3.140625 9.25 8.8125q3.328125 5.65625 3.328125 12.546875q0 8.34375 -3.9375 15.078125q-3.921875 6.71875 -11.3125 10.609375q-7.375 3.875 -17.25 3.875q-15.015625 0 -23.03125 -9.46875q-8.0 -9.484375 -8.0 -25.703125q0 -14.171875 4.859375 -25.265625q4.875 -11.09375 14.015625 -17.359375q9.15625 -6.265625 21.34375 -6.265625q11.15625 0 18.609375 5.34375q7.453125 5.34375 8.546875 14.328125l0.140625 1.625q0 4.84375 -3.0625 7.546875q-3.046875 2.6875 -8.09375 2.6875q-3.953125 0 -6.421875 -2.109375q-2.46875 -2.109375 -4.046875 -6.515625q-0.734375 -1.921875 -2.484375 -3.046875q-1.734375 -1.140625 -4.640625 -1.140625zm-5.078125 30.140625q-4.59375 0 -6.984375 2.390625q-2.375 2.390625 -2.375 6.578125q0 3.6875 1.875 5.65625q1.875 1.96875 5.484375 1.96875q4.171875 0 6.640625 -2.5625q2.46875 -2.578125 2.46875 -6.9375q0 -3.390625 -1.859375 -5.234375q-1.859375 -1.859375 -5.25 -1.859375z" fill-rule="nonzero"/><path fill="#000000" fill-opacity="0.0" d="m207.20998 235.21606l121.732285 0l0 180.97638l-121.732285 0z" fill-rule="evenodd"/><path fill="#000000" d="m277.44833 307.5442q-6.40625 0 -10.609375 5.234375q-4.1875 5.234375 -5.859375 11.03125q-0.359375 -1.234375 4.59375 -3.109375q4.96875 -1.875 10.796875 -1.875q7.359375 0 13.265625 3.140625q5.921875 3.140625 9.25 8.8125q3.328125 5.65625 3.328125 12.546875q0 8.34375 -3.9375 15.078125q-3.921875 6.71875 -11.3125 10.609375q-7.375 3.875 -17.25 3.875q-15.015625 0 -23.03125 -9.46875q-8.0 -9.484375 -8.0 -25.703125q0 -14.171875 4.859375 -25.265625q4.875 -11.09375 14.015625 -17.359375q9.15625 -6.265625 21.34375 -6.265625q11.15625 0 18.609375 5.34375q7.453125 5.34375 8.546875 14.328125l0.140625 1.625q0 4.84375 -3.0625 7.546875q-3.046875 2.6875 -8.09375 2.6875q-3.953125 0 -6.421875 -2.109375q-2.46875 -2.109375 -4.046875 -6.515625q-0.734375 -1.921875 -2.484375 -3.046875q-1.734375 -1.140625 -4.640625 -1.140625zm-5.078125 30.140625q-4.59375 0 -6.984375 2.390625q-2.375 2.390625 -2.375 6.578125q0 3.6875 1.875 5.65625q1.875 1.96875 5.484375 1.96875q4.171875 0 6.640625 -2.5625q2.46875 -2.578125 2.46875 -6.9375q0 -3.390625 -1.859375 -5.234375q-1.859375 -1.859375 -5.25 -1.859375z" fill-rule="nonzero"/></g></svg>