<svg version="1.1" viewBox="0.0 0.0 1280.0 960.0" fill="none" stroke="none" stroke-linecap="square" stroke-miterlimit="10" xmlns:xlink="http://www.w3.org/1999/xlink" xmlns="http://www.w3.org/2000/svg"><clipPath id="p.0"><path d="m0 0l1280.0 0l0 960.0l-1280.0 0l0 -960.0z" clip-rule="nonzero"/></clipPath><g clip-path="url(#p.0)"><path fill="#000000" fill-opacity="0.0" d="m0 0l1280.0 0l0 960.0l-1280.0 0z" fill-rule="evenodd"/><path fill="#000000" fill-opacity="0.0" d="m341.90027 220.92996l656.7874 0l0 633.51184l-656.7874 0z" fill-rule="evenodd"/><path stroke="#000000" stroke-width="24.0" stroke-linejoin="round" stroke-linecap="butt" stroke-dasharray="96.0,72.0" d="m341.90027 220.92996l656.7874 0l0 633.51184l-656.7874 0z" fill-rule="evenodd"/><path fill="#000000" fill-opacity="0.0" d="m525.9191 151.97018l459.0551 0" fill-rule="evenodd"/><path stroke="#000000" stroke-width="12.0" stroke-linejoin="round" stroke-linecap="butt" d="m525.9192 151.97018l387.05505 0" fill-rule="evenodd"/><path fill="#000000" stroke="#000000" stroke-width="12.0" stroke-linecap="butt" d="m912.97424 171.79097l54.457153 -19.820786l-54.457153 -19.820786z" fill-rule="evenodd"/><path fill="#000000" fill-opacity="0.0" d="m268.07663 416.2787l0 438.2362" fill-rule="evenodd"/><path stroke="#000000" stroke-width="12.0" stroke-linejoin="round" stroke-linecap="butt" d="m268.0766 416.27866l0 366.2363" fill-rule="evenodd"/><path fill="#000000" stroke="#000000" stroke-width="12.0" stroke-linecap="butt" d="m248.25581 782.51495l19.820786 54.457153l19.8208 -54.457153z" fill-rule="evenodd"/><path fill="#000000" fill-opacity="0.0" d="m380.04544 53.400272l121.73227 0l0 180.97638l-121.73227 0z" fill-rule="evenodd"/><path fill="#000000" d="m474.67014 107.27527q3.546875 0 5.625 2.875q2.078125 2.859375 2.078125 7.625q0 4.578125 -1.921875 6.921875q-1.90625 2.328125 -4.25 3.90625q-2.34375 1.578125 -3.265625 2.234375q-13.5 9.296875 -18.796875 21.265625q-5.28125 11.953125 -6.4375 25.78125q-0.640625 6.578125 -3.84375 9.890625q-3.203125 3.296875 -8.109375 3.296875q-4.90625 0 -8.234375 -3.421875q-3.328125 -3.421875 -3.328125 -11.078125q0 -8.03125 2.984375 -17.5625q2.984375 -9.546875 9.578125 -18.96875q6.59375 -9.4375 9.609375 -11.625l-24.0625 0.390625q-4.15625 0 -6.34375 -2.765625q-2.171875 -2.78125 -2.171875 -6.53125q0 -4.4375 2.921875 -8.0625q2.921875 -3.640625 7.96875 -3.640625q6.65625 0 19.25 0.9375q2.515625 0.125 9.265625 0.53125q6.765625 0.390625 10.5625 0.390625q1.25 0 4.3125 -1.09375q0.765625 -0.15625 2.828125 -0.71875q2.078125 -0.578125 3.78125 -0.578125z" fill-rule="nonzero"/><path fill="#000000" fill-opacity="0.0" d="m207.20998 235.21606l121.732285 0l0 180.97638l-121.732285 0z" fill-rule="evenodd"/><path fill="#000000" d="m301.8347 289.09106q3.546875 0 5.625 2.875q2.078125 2.859375 2.078125 7.625q0 4.578125 -1.921875 6.921875q-1.90625 2.328125 -4.25 3.90625q-2.34375 1.578125 -3.265625 2.234375q-13.5 9.296875 -18.796875 21.265625q-5.28125 11.953125 -6.4375 25.78125q-0.640625 6.578125 -3.84375 9.890625q-3.203125 3.296875 -8.109375 3.296875q-4.90625 0 -8.234375 -3.421875q-3.328125 -3.421875 -3.328125 -11.078125q0 -8.03125 2.984375 -17.5625q2.984375 -9.546875 9.578125 -18.96875q6.59375 -9.4375 9.609375 -11.625l-24.0625 0.390625q-4.15625 0 -6.34375 -2.765625q-2.171875 -2.78125 -2.171875 -6.53125q0 -4.4375 2.921875 -8.0625q2.921875 -3.640625 7.96875 -3.640625q6.65625 0 19.25 0.9375q2.515625 0.125 9.265625 0.53125q6.765625 0.390625 10.5625 0.390625q1.25 0 4.3125 -1.09375q0.765625 -0.15625 2.828125 -0.71875q2.078125 -0.578125 3.78125 -0.578125z" fill-rule="nonzero"/></g></svg>