<svg version="1.1" viewBox="0.0 0.0 1280.0 960.0" fill="none" stroke="none" stroke-linecap="square" stroke-miterlimit="10" xmlns:xlink="http://www.w3.org/1999/xlink" xmlns="http://www.w3.org/2000/svg"><clipPath id="p.0"><path d="m0 0l1280.0 0l0 960.0l-1280.0 0l0 -960.0z" clip-rule="nonzero"/></clipPath><g clip-path="url(#p.0)"><path fill="#000000" fill-opacity="0.0" d="m0 0l1280.0 0l0 960.0l-1280.0 0z" fill-rule="evenodd"/><path fill="#000000" fill-opacity="0.0" d="m341.90027 220.92996l656.7874 0l0 633.51184l-656.7874 0z" fill-rule="evenodd"/><path stroke="#000000" stroke-width="24.0" stroke-linejoin="round" stroke-linecap="butt" stroke-dasharray="96.0,72.0" d="m341.90027 220.92996l656.7874 0l0 633.51184l-656.7874 0z" fill-rule="evenodd"/><path fill="#000000" fill-opacity="0.0" d="m525.9191 151.97018l459.0551 0" fill-rule="evenodd"/><path stroke="#000000" stroke-width="12.0" stroke-linejoin="round" stroke-linecap="butt" d="m525.9192 151.97018l387.05505 0" fill-rule="evenodd"/><path fill="#000000" stroke="#000000" stroke-width="12.0" stroke-linecap="butt" d="m912.97424 171.79097l54.457153 -19.820786l-54.457153 -19.820786z" fill-rule="evenodd"/><path fill="#000000" fill-opacity="0.0" d="m268.07663 416.2787l0 438.2362" fill-rule="evenodd"/><path stroke="#000000" stroke-width="12.0" stroke-linejoin="round" stroke-linecap="butt" d="m268.0766 416.27866l0 366.2363" fill-rule="evenodd"/><path fill="#000000" stroke="#000000" stroke-width="12.0" stroke-linecap="butt" d="m248.25581 782.51495l19.820786 54.457153l19.8208 -54.457153z" fill-rule="evenodd"/><path fill="#000000" fill-opacity="0.0" d="m380.04544 53.400272l121.73227 0l0 180.97638l-121.73227 0z" fill-rule="evenodd"/><path fill="#000000" d="m465.90457 147.9784q9.875 5.015625 9.875 17.921875q0 7.59375 -4.3125 13.34375q-4.3125 5.734375 -11.859375 8.78125q-7.53125 3.046875 -17.265625 3.046875q-13.8125 0 -22.03125 -5.734375q-8.203125 -5.734375 -8.203125 -16.234375q0 -6.625 3.90625 -12.046875q3.921875 -5.421875 8.15625 -7.6875q-1.515625 -1.015625 -4.328125 -6.078125q-2.796875 -5.0625 -2.796875 -10.71875q0 -12.046875 8.921875 -18.796875q8.921875 -6.765625 23.578125 -6.765625q12.21875 0 20.015625 5.609375q7.8125 5.59375 7.8125 15.421875q0 7.015625 -3.921875 12.5q-3.90625 5.484375 -7.546875 7.4375zm-17.421875 -22.515625q-4.734375 0 -7.125 1.671875q-2.375 1.671875 -2.375 4.640625q0 4.234375 7.328125 7.59375q5.15625 -2.53125 7.34375 -4.875q2.1875 -2.34375 2.1875 -4.453125q0 -4.578125 -7.359375 -4.578125zm-5.46875 47.140625q5.515625 0 8.109375 -1.53125q2.59375 -1.546875 2.59375 -3.703125q0 -1.65625 -2.5 -3.78125q-2.484375 -2.125 -9.390625 -5.1875q-4.421875 2.015625 -6.3125 4.328125q-1.875 2.296875 -1.875 4.78125q0 2.203125 2.28125 3.65625q2.28125 1.4375 7.09375 1.4375z" fill-rule="nonzero"/><path fill="#000000" fill-opacity="0.0" d="m207.20998 235.21606l121.732285 0l0 180.97638l-121.732285 0z" fill-rule="evenodd"/><path fill="#000000" d="m293.0691 329.7942q9.875 5.015625 9.875 17.921875q0 7.59375 -4.3125 13.34375q-4.3125 5.734375 -11.859375 8.78125q-7.53125 3.046875 -17.265625 3.046875q-13.8125 0 -22.03125 -5.734375q-8.203125 -5.734375 -8.203125 -16.234375q0 -6.625 3.90625 -12.046875q3.921875 -5.421875 8.15625 -7.6875q-1.515625 -1.015625 -4.328125 -6.078125q-2.796875 -5.0625 -2.796875 -10.71875q0 -12.046875 8.921875 -18.796875q8.921875 -6.765625 23.578125 -6.765625q12.21875 0 20.015625 5.609375q7.8125 5.59375 7.8125 15.421875q0 7.015625 -3.921875 12.5q-3.90625 5.484375 -7.546875 7.4375zm-17.421875 -22.515625q-4.734375 0 -7.125 1.671875q-2.375 1.671875 -2.375 4.640625q0 4.234375 7.328125 7.59375q5.15625 -2.53125 7.34375 -4.875q2.1875 -2.34375 2.1875 -4.453125q0 -4.578125 -7.359375 -4.578125zm-5.46875 47.140625q5.515625 0 8.109375 -1.53125q2.59375 -1.546875 2.59375 -3.703125q0 -1.65625 -2.5 -3.78125q-2.484375 -2.125 -9.390625 -5.1875q-4.421875 2.015625 -6.3125 4.328125q-1.875 2.296875 -1.875 4.78125q0 2.203125 2.28125 3.65625q2.28125 1.4375 7.09375 1.4375z" fill-rule="nonzero"/></g></svg>