<svg version="1.1" viewBox="0.0 0.0 1280.0 960.0" fill="none" stroke="none" stroke-linecap="square" stroke-miterlimit="10" xmlns:xlink="http://www.w3.org/1999/xlink" xmlns="http://www.w3.org/2000/svg"><clipPath id="p.0"><path d="m0 0l1280.0 0l0 960.0l-1280.0 0l0 -960.0z" clip-rule="nonzero"/></clipPath><g clip-path="url(#p.0)"><path fill="#000000" fill-opacity="0.0" d="m0 0l1280.0 0l0 960.0l-1280.0 0z" fill-rule="evenodd"/><path fill="#000000" fill-opacity="0.0" d="m341.90027 220.92996l656.7874 0l0 633.51184l-656.7874 0z" fill-rule="evenodd"/><path stroke="#000000" stroke-width="24.0" stroke-linejoin="round" stroke-linecap="butt" stroke-dasharray="96.0,72.0" d="m341.90027 220.92996l656.7874 0l0 633.51184l-656.7874 0z" fill-rule="evenodd"/><path fill="#000000" fill-opacity="0.0" d="m525.9191 151.97018l459.0551 0" fill-rule="evenodd"/><path stroke="#000000" stroke-width="12.0" stroke-linejoin="round" stroke-linecap="butt" d="m525.9192 151.97018l387.05505 0" fill-rule="evenodd"/><path fill="#000000" stroke="#000000" stroke-width="12.0" stroke-linecap="butt" d="m912.97424 171.79097l54.457153 -19.820786l-54.457153 -19.820786z" fill-rule="evenodd"/><path fill="#000000" fill-opacity="0.0" d="m268.07663 416.2787l0 438.2362" fill-rule="evenodd"/><path stroke="#000000" stroke-width="12.0" stroke-linejoin="round" stroke-linecap="butt" d="m268.0766 416.27866l0 366.2363" fill-rule="evenodd"/><path fill="#000000" stroke="#000000" stroke-width="12.0" stroke-linecap="butt" d="m248.25581 782.51495l19.820786 54.457153l19.8208 -54.457153z" fill-rule="evenodd"/><path fill="#000000" fill-opacity="0.0" d="m380.04544 53.400272l121.73227 0l0 180.97638l-121.73227 0z" fill-rule="evenodd"/><path fill="#000000" d="m446.67444 107.00964q15.015625 0 23.015625 9.46875q8.015625 9.46875 8.015625 25.6875q0 14.1875 -4.875 25.28125q-4.875 11.078125 -14.015625 17.359375q-9.140625 6.265625 -21.34375 6.265625q-11.15625 0 -18.609375 -5.34375q-7.4375 -5.359375 -8.53125 -14.328125l-0.15625 -1.640625q0 -4.84375 3.0625 -7.53125q3.0625 -2.6875 8.109375 -2.6875q3.953125 0 6.421875 2.109375q2.46875 2.09375 4.03125 6.5q0.75 1.921875 2.484375 3.0625q1.75 1.125 4.65625 1.125q6.40625 0 10.59375 -5.234375q4.203125 -5.234375 5.875 -11.03125q0.375 1.234375 -4.59375 3.125q-4.953125 1.875 -10.796875 1.875q-7.359375 0 -13.28125 -3.140625q-5.90625 -3.15625 -9.234375 -8.8125q-3.328125 -5.671875 -3.328125 -12.546875q0 -8.359375 3.921875 -15.078125q3.9375 -6.734375 11.3125 -10.609375q7.375 -3.875 17.265625 -3.875zm-2.65625 35.1875q4.578125 0 6.96875 -2.375q2.390625 -2.390625 2.390625 -6.578125q0 -3.703125 -1.875 -5.671875q-1.875 -1.96875 -5.484375 -1.96875q-4.171875 0 -6.640625 2.578125q-2.46875 2.5625 -2.46875 6.921875q0 3.390625 1.84375 5.25q1.859375 1.84375 5.265625 1.84375z" fill-rule="nonzero"/><path fill="#000000" fill-opacity="0.0" d="m207.20998 235.21606l121.732285 0l0 180.97638l-121.732285 0z" fill-rule="evenodd"/><path fill="#000000" d="m273.83896 288.82544q15.015625 0 23.015625 9.46875q8.015625 9.46875 8.015625 25.6875q0 14.1875 -4.875 25.28125q-4.875 11.078125 -14.015625 17.359375q-9.140625 6.265625 -21.34375 6.265625q-11.15625 0 -18.609375 -5.34375q-7.4375 -5.359375 -8.53125 -14.328125l-0.15625 -1.640625q0 -4.84375 3.0625 -7.53125q3.0625 -2.6875 8.109375 -2.6875q3.953125 0 6.421875 2.109375q2.46875 2.09375 4.03125 6.5q0.75 1.921875 2.484375 3.0625q1.75 1.125 4.65625 1.125q6.40625 0 10.59375 -5.234375q4.203125 -5.234375 5.875 -11.03125q0.375 1.234375 -4.59375 3.125q-4.953125 1.875 -10.796875 1.875q-7.359375 0 -13.28125 -3.140625q-5.90625 -3.15625 -9.234375 -8.8125q-3.328125 -5.671875 -3.328125 -12.546875q0 -8.359375 3.921875 -15.078125q3.9375 -6.734375 11.3125 -10.609375q7.375 -3.875 17.265625 -3.875zm-2.65625 35.1875q4.578125 0 6.96875 -2.375q2.390625 -2.390625 2.390625 -6.578125q0 -3.703125 -1.875 -5.671875q-1.875 -1.96875 -5.484375 -1.96875q-4.171875 0 -6.640625 2.578125q-2.46875 2.5625 -2.46875 6.921875q0 3.390625 1.84375 5.25q1.859375 1.84375 5.265625 1.84375z" fill-rule="nonzero"/></g></svg>